# xmcd
#
# Track frame offsets:
# 150
# 4934
# 25163
# 46134
# 76535
# 100481
# 113827
# 148612
# 155720
# 177171
# 195841
# 215766
# 242671
# 271027
# 289230
#
# Disc length: 4306 seconds
#
#
# Revision: 0
# Processed by: cddbd v1.5PL3 Copyright (c) Steve Scherf et al.
# Submitted via: FreeRIP 2.53 
#
DISCID=c510d00f
DTITLE=Acoustic Hot Tuna - 11-28-00 Ram's Head Tavern [CD1)
DYEAR=2000
DGENRE=Blues
TTITLE0=Introduction by Brian Lady
TTITLE1=Begging Bowl
TTITLE2=Adam and Eve
TTITLE3=Don't Play The Guitar Boy
TTITLE4=Gettin' Evil
TTITLE5=(G-String Problems)
TTITLE6=Whipping Post
TTITLE7=Introduction by Harvey Colman
TTITLE8=True Religion
TTITLE9=Trouble In Mind
TTITLE10=Terrible Operation
TTITLE11=Uncle Sam Blues
TTITLE12=Death Don't Have No Mercy
TTITLE13=Do Not Go Gentle
TTITLE14=I See The Light
EXTD=Geoff Achison Tracks 1-7\nRam;s Head Tavern\nAnnapolis, MD
EXTT0=
EXTT1=
EXTT2=
EXTT3=
EXTT4=
EXTT5=
EXTT6=
EXTT7=
EXTT8=
EXTT9=
EXTT10=
EXTT11=
EXTT12=
EXTT13=
EXTT14=
PLAYORDER=
